<svg width="92" height="44" viewBox="0 0 92 44" fill="none" xmlns="http://www.w3.org/2000/svg">
<rect width="92" height="44" rx="22" fill="#D75D39"/>
<path d="M42.454 29C41.9847 29 41.6253 28.8753 41.376 28.626C41.1267 28.3767 41.002 28.032 41.002 27.592C41.002 27.1373 41.1267 26.7927 41.376 26.558C41.6253 26.3233 41.9847 26.206 42.454 26.206H44.676V16.284H46.282L43.07 18.242C42.7327 18.4473 42.4173 18.528 42.124 18.484C41.8453 18.44 41.6033 18.3153 41.398 18.11C41.1927 17.9047 41.0533 17.6627 40.98 17.384C40.9213 17.0907 40.9507 16.8047 41.068 16.526C41.1853 16.2327 41.4053 15.9833 41.728 15.778L44.786 13.93C45.094 13.7393 45.402 13.5853 45.71 13.468C46.0327 13.3507 46.348 13.292 46.656 13.292C47.096 13.292 47.4407 13.4093 47.69 13.644C47.954 13.864 48.086 14.2087 48.086 14.678V26.206H50.088C50.5427 26.206 50.8947 26.3233 51.144 26.558C51.3933 26.7927 51.518 27.1373 51.518 27.592C51.518 28.0467 51.3933 28.3987 51.144 28.648C50.8947 28.8827 50.5427 29 50.088 29H42.454Z" fill="white"/>
</svg>
