<svg width="92" height="44" viewBox="0 0 92 44" fill="none" xmlns="http://www.w3.org/2000/svg">
<rect x="1.5" y="1.5" width="89" height="41" rx="20.5" stroke="#D75D39" stroke-width="3"/>
<path d="M42.036 29C41.4933 29 41.09 28.8753 40.826 28.626C40.5767 28.362 40.452 27.9807 40.452 27.482C40.452 27.1593 40.5327 26.8587 40.694 26.58C40.8553 26.3013 41.0753 26.0153 41.354 25.722L45.49 21.366C46.106 20.706 46.546 20.1193 46.81 19.606C47.0887 19.0927 47.228 18.5793 47.228 18.066C47.228 17.4207 47.0153 16.9293 46.59 16.592C46.1793 16.2547 45.578 16.086 44.786 16.086C44.3607 16.086 43.9207 16.152 43.466 16.284C43.026 16.4013 42.564 16.5993 42.08 16.878C41.7573 17.054 41.4567 17.12 41.178 17.076C40.914 17.0173 40.6867 16.8927 40.496 16.702C40.3053 16.4967 40.1807 16.2547 40.122 15.976C40.0633 15.6973 40.0927 15.4187 40.21 15.14C40.3273 14.8613 40.5473 14.6267 40.87 14.436C41.5153 14.04 42.2193 13.7467 42.982 13.556C43.7447 13.3507 44.5 13.248 45.248 13.248C46.4067 13.248 47.382 13.424 48.174 13.776C48.966 14.1133 49.5673 14.612 49.978 15.272C50.3887 15.932 50.594 16.7387 50.594 17.692C50.594 18.308 50.4987 18.9093 50.308 19.496C50.1173 20.0827 49.8167 20.6767 49.406 21.278C49.01 21.8647 48.482 22.4953 47.822 23.17L43.972 27.086V26.206H49.934C50.4033 26.206 50.7553 26.3233 50.99 26.558C51.2393 26.7927 51.364 27.1373 51.364 27.592C51.364 28.0467 51.2393 28.3987 50.99 28.648C50.7553 28.8827 50.4033 29 49.934 29H42.036Z" fill="#D75D39"/>
</svg>
