<svg width="75" height="75" viewBox="0 0 75 75" fill="none" xmlns="http://www.w3.org/2000/svg">
<path id="Vector" d="M45.4999 16.8057C48.6328 17.4158 51.5121 18.9451 53.7692 21.1979C56.0263 23.4507 57.5585 26.3245 58.1697 29.4514M45.4999 4C52.0089 4.72172 58.0786 7.63099 62.7124 12.2501C67.3462 16.8693 70.2687 22.9237 71 29.4194M67.7924 54.9668V64.5711C67.7961 65.4627 67.6131 66.3453 67.2552 67.1622C66.8973 67.9792 66.3724 68.7125 65.7142 69.3152C65.0559 69.918 64.2788 70.3769 63.4325 70.6625C62.5863 70.9482 61.6896 71.0543 60.7999 70.974C50.9297 69.9036 41.4487 66.5373 33.1187 61.1456C25.3686 56.2303 18.798 49.6722 13.8733 41.937C8.45241 33.5851 5.0789 24.0762 4.02603 14.1806C3.94588 13.2953 4.05129 12.403 4.33557 11.5606C4.61984 10.7182 5.07674 9.94407 5.67718 9.28756C6.27762 8.63104 7.00844 8.10651 7.82312 7.74735C8.6378 7.38819 9.51848 7.20227 10.4091 7.20143H20.0318C21.5884 7.18614 23.0976 7.73633 24.2778 8.74943C25.4581 9.76254 26.229 11.1694 26.4469 12.7079C26.8531 15.7815 27.6063 18.7994 28.6922 21.7039C29.1238 22.8498 29.2172 24.0951 28.9613 25.2924C28.7055 26.4896 28.1112 27.5885 27.2488 28.459L23.1752 32.5248C27.7413 40.5397 34.3903 47.176 42.4206 51.7334L46.4942 47.6676C47.3663 46.8068 48.4673 46.2136 49.6669 45.9583C50.8664 45.703 52.1141 45.7962 53.2622 46.2269C56.1723 47.3108 59.1959 48.0626 62.2754 48.4679C63.8335 48.6873 65.2565 49.4706 66.2738 50.6689C67.291 51.8672 67.8315 53.3968 67.7924 54.9668Z" stroke="#D75D39" stroke-width="7" stroke-linecap="round" stroke-linejoin="round"/>
</svg>
