<svg width="63" height="63" viewBox="0 0 63 63" fill="none" xmlns="http://www.w3.org/2000/svg">
<g id="cil:chat-bubble">
<g id="Vector">
<path d="M55.1502 48.2968C58.9055 44.9499 61.0319 40.4888 61.0319 35.8594C61.0319 30.9395 58.7287 26.3383 54.5464 22.9026C50.476 19.5599 45.0883 17.7188 39.375 17.7188C33.6617 17.7188 28.274 19.5599 24.2042 22.9028C20.0219 26.3383 17.7188 30.9395 17.7188 35.8594C17.7188 40.7793 20.0219 45.3805 24.2042 48.8163C28.274 52.1592 33.6617 54.0002 39.375 54.0002C40.1363 54.0002 40.9023 53.9666 41.6618 53.8998L42.9595 55.0246C47.43 58.8985 53.1471 61.031 59.0625 61.0312H61.0312V56.8406L60.4547 56.2642C58.18 53.9828 56.3775 51.2754 55.1502 48.2968ZM45.5383 52.0488L42.9345 49.792L42.0663 49.8985C41.1733 50.0077 40.2746 50.0624 39.375 50.0625C29.6051 50.0625 21.6562 43.691 21.6562 35.8594C21.6562 28.0279 29.6051 21.6562 39.375 21.6562C49.1449 21.6562 57.0937 28.0277 57.0937 35.8594C57.0937 39.7612 55.1471 43.4039 51.6125 46.1164L50.4786 46.9864L51.0018 48.4673C52.074 51.4918 53.65 54.3131 55.6631 56.812C51.9141 56.1862 48.4106 54.538 45.5383 52.0488Z" fill="white"/>
<path d="M7.40558 39.0644C9.24848 36.7316 10.6954 34.1118 11.6886 31.3096L12.2078 29.8362L11.075 28.9667C7.74186 26.4091 5.90625 22.9763 5.90625 19.3008C5.90625 11.915 13.4132 5.90625 22.6406 5.90625C29.4289 5.90625 35.2858 9.15838 37.9079 13.8182C38.3948 13.7945 38.8838 13.7812 39.375 13.7812C40.3616 13.7812 41.3392 13.8291 42.3077 13.9248C41.2944 11.2996 39.5346 8.90318 37.1151 6.91597C33.2315 3.72574 28.0916 1.96875 22.6406 1.96875C17.1896 1.96875 12.0497 3.72574 8.16588 6.91597C4.16957 10.1987 1.96875 14.597 1.96875 19.3008C1.96875 23.7058 3.98081 27.9503 7.53662 31.1432C6.37621 33.9357 4.68065 36.4742 2.54547 38.6157L1.96875 39.1923V43.3125H3.9375C7.5781 43.312 11.1686 42.4642 14.4249 40.8362C14.0678 39.4828 13.8586 38.0947 13.8009 36.6963C11.8245 37.8546 9.65975 38.6562 7.40558 39.0644Z" fill="white"/>
</g>
</g>
</svg>
