<svg width="178" height="44" viewBox="0 0 178 44" fill="none" xmlns="http://www.w3.org/2000/svg">
<g id="Group 6766">
<path id="Vector" d="M74.3935 10.9727V25.9055H71.1182V23.753C69.9657 25.336 68.1754 26.2911 65.8067 26.2911C61.6795 26.2911 58.2539 22.8562 58.2539 18.4346C58.2539 14.0131 61.6841 10.5781 65.8067 10.5781C68.1754 10.5781 69.9611 11.5333 71.1182 13.0849V10.9638H74.3935V10.9727ZM71.1182 18.4391C71.1182 15.6633 69.0546 13.6588 66.326 13.6588C63.5973 13.6588 61.5338 15.6588 61.5338 18.4391C61.5338 21.2194 63.5973 23.2194 66.326 23.2194C69.0546 23.2194 71.1182 21.2194 71.1182 18.4391Z" fill="#385F59"/>
<path id="Vector_2" d="M92.9599 18.4439C92.9599 22.8655 89.5297 26.3004 85.4071 26.3004C83.0384 26.3004 81.2527 25.3453 80.0956 23.7623V25.9148H76.8203V5H80.0956V13.0942C81.2481 11.5426 83.0384 10.5874 85.4071 10.5874C89.5343 10.5874 92.9599 13.991 92.9599 18.4439ZM89.6846 18.4439C89.6846 15.6682 87.621 13.6637 84.8924 13.6637C82.1637 13.6637 80.1002 15.6637 80.1002 18.4439C80.1002 21.2242 82.1637 23.2242 84.8924 23.2242C87.621 23.2242 89.6846 21.2242 89.6846 18.4439Z" fill="#385F59"/>
<path id="Vector_3" d="M94.5371 4.10742H97.8124V25.9101H94.5371V4.10742Z" fill="#385F59"/>
<path id="Vector_4" d="M107.644 23.3404C109.466 23.3404 110.828 22.5332 111.557 21.4883L114.258 23.0399C112.864 25.0713 110.586 26.2955 107.612 26.2955C102.605 26.2955 99.3574 22.9188 99.3574 18.439C99.3574 13.9592 102.605 10.5825 107.366 10.5825C112.126 10.5825 114.982 14.1655 114.982 18.4659C114.982 18.9144 114.923 19.3942 114.859 19.8112H102.783C103.298 22.1386 105.211 23.3359 107.639 23.3359L107.644 23.3404ZM111.68 17.1879C111.224 14.6184 109.311 13.5153 107.343 13.5153C104.883 13.5153 103.216 14.9502 102.76 17.1879H111.68Z" fill="#385F59"/>
<path id="Vector_5" d="M136.801 10.9727L132.036 25.9054H128.82L125.663 15.8381L122.479 25.9054H119.263L114.498 10.9727H117.956L120.898 21.2776L124.082 10.9727H127.207L130.364 21.2776L133.339 10.9727H136.796H136.801Z" fill="#385F59"/>
<path id="Vector_6" d="M152.518 10.9727V25.9055H149.243V23.753C148.091 25.336 146.3 26.2911 143.932 26.2911C139.805 26.2911 136.379 22.8562 136.379 18.4346C136.379 14.0131 139.809 10.5781 143.932 10.5781C146.3 10.5781 148.086 11.5333 149.243 13.0849V10.9638H152.518V10.9727ZM149.243 18.4391C149.243 15.6633 147.18 13.6588 144.451 13.6588C141.722 13.6588 139.659 15.6588 139.659 18.4391C139.659 21.2194 141.722 23.2194 144.451 23.2194C147.18 23.2194 149.243 21.2194 149.243 18.4391Z" fill="#385F59"/>
<path id="Vector_7" d="M162.89 10.7081V14.2014C160.736 14.0534 158.217 15.0399 158.217 18.3852V25.9099H154.941V10.9727H158.217V13.4794C159.128 11.448 160.977 10.7036 162.89 10.7036V10.7081Z" fill="#385F59"/>
<path id="Vector_8" d="M170.661 23.3404C172.483 23.3404 173.845 22.5332 174.574 21.4883L177.276 23.0399C175.882 25.0713 173.604 26.2955 170.629 26.2955C165.623 26.2955 162.375 22.9188 162.375 18.439C162.375 13.9592 165.623 10.5825 170.383 10.5825C175.144 10.5825 178 14.1655 178 18.4659C178 18.9144 177.941 19.3942 177.877 19.8112H165.801C166.315 22.1386 168.229 23.3359 170.657 23.3359L170.661 23.3404ZM174.697 17.1879C174.242 14.6184 172.328 13.5153 170.361 13.5153C167.901 13.5153 166.233 14.9502 165.778 17.1879H174.697Z" fill="#385F59"/>
<path id="Vector_9" d="M138.15 34.444V43.6144H134.875V34.7758C134.875 32.5068 133.54 31.3094 131.477 31.3094C129.413 31.3094 127.623 32.565 127.623 35.6099V43.6144H124.348V28.6816H127.623V30.592C128.625 29.0404 130.26 28.2915 132.324 28.2915C135.722 28.2915 138.15 30.5606 138.15 34.444Z" fill="#385F59"/>
<path id="Vector_10" d="M139.426 36.1436C139.426 31.6952 143.006 28.2871 147.434 28.2871C151.862 28.2871 155.442 31.6907 155.442 36.1436C155.442 40.5965 151.894 44.0001 147.434 44.0001C142.974 44.0001 139.426 40.5651 139.426 36.1436ZM152.167 36.1436C152.167 33.4261 150.103 31.4261 147.434 31.4261C144.765 31.4261 142.701 33.4261 142.701 36.1436C142.701 38.8611 144.765 40.8611 147.434 40.8611C150.103 40.8611 152.167 38.8611 152.167 36.1436Z" fill="#385F59"/>
<path id="Vector_11" d="M177.348 28.6772L172.583 43.61H169.367L166.21 33.5427L163.026 43.61H159.81L155.045 28.6772H158.502L161.445 38.9822L164.629 28.6772H167.754L170.911 38.9822L173.886 28.6772H177.343H177.348Z" fill="#385F59"/>
<path id="Vector_12" d="M8.28161 23.9463C10.1037 23.9463 11.4658 23.1391 12.1947 22.0943L14.896 23.6459C13.502 25.6773 11.2244 26.9015 8.24973 26.9015C3.24796 26.9015 0 23.5248 0 19.045C0 14.5652 3.24796 11.1885 8.00829 11.1885C12.7686 11.1885 15.6248 14.7714 15.6248 19.0719C15.6248 19.5203 15.5656 20.0001 15.5018 20.4172H3.43017C3.94493 22.7445 5.85817 23.9418 8.28617 23.9418L8.28161 23.9463ZM12.3176 17.7939C11.8621 15.2244 9.94887 14.1212 7.98096 14.1212C5.52563 14.1212 3.85382 15.5562 3.39829 17.7939H12.3176Z" fill="#385F59"/>
<path id="Vector_13" d="M16.1725 19.045C16.1725 14.5965 19.6027 11.1885 24.1808 11.1885C27.1555 11.1885 29.7338 12.7131 30.9455 15.0405L28.1257 16.6548C27.4561 15.2513 25.9711 14.3544 24.1489 14.3544C21.4795 14.3544 19.4478 16.3544 19.4478 19.045C19.4478 21.7356 21.4795 23.7356 24.1489 23.7356C25.9711 23.7356 27.4561 22.8118 28.185 21.4351L31.0047 23.0181C29.7292 25.3768 27.1509 26.9015 24.1763 26.9015C19.5936 26.9015 16.168 23.4665 16.168 19.045H16.1725Z" fill="#385F59"/>
<path id="Vector_14" d="M30.8848 19.045C30.8848 14.5965 34.4653 11.1885 38.8931 11.1885C43.3208 11.1885 46.9013 14.5921 46.9013 19.045C46.9013 23.4979 43.3527 26.9015 38.8931 26.9015C34.4334 26.9015 30.8848 23.4665 30.8848 19.045ZM43.6261 19.045C43.6261 16.3275 41.5625 14.3275 38.8931 14.3275C36.2236 14.3275 34.1601 16.3275 34.1601 19.045C34.1601 21.7625 36.2236 23.7625 38.8931 23.7625C41.5625 23.7625 43.6261 21.7625 43.6261 19.045Z" fill="#385F59"/>
<path id="Vector_15" d="M53.8769 21.852C53.8769 23.7623 55.1523 23.7354 57.6396 23.6143V26.5112C52.6014 27.1076 50.6016 25.7354 50.6016 21.852V0.955157L53.8769 0V21.852Z" fill="#385F59"/>
<path id="Vector_16" d="M50.109 10.4168C50.109 10.4168 50.6283 2.59173 41.6953 4.16572C41.6953 4.16572 41.8775 12.1298 49.3574 10.8339C45.7815 8.51998 44.9843 7.36303 44.1825 6.01774C46.4875 8.42581 50.109 10.4168 50.109 10.4168Z" fill="#385F59"/>
<path id="Vector_17" d="M54.3171 9.79363C54.3171 9.79363 53.9071 3.61874 60.9542 4.86089C60.9542 4.86089 60.8084 11.1434 54.9092 10.121C57.729 8.29587 58.3622 7.38107 58.9908 6.32278C57.1733 8.22412 54.3125 9.79363 54.3125 9.79363H54.3171Z" fill="#385F59"/>
<path id="Vector_18" d="M0.127602 31.1704C8.60509 34.6861 17.8023 36.435 26.913 37.3274C28.2568 37.4126 30.2931 37.5381 31.6415 37.6233C32.835 37.6771 36.0647 37.6951 37.322 37.7309C41.3626 37.6816 45.5671 37.3677 49.5986 36.9776C51.2704 36.7534 54.4455 36.278 56.1538 36.0404C58.0032 35.6592 61.7249 34.9058 63.579 34.5426C68.5443 33.4888 73.7556 32.4484 78.8075 31.9641L82.6522 31.565C84.8479 31.4484 88.196 31.2108 90.3826 31.2601C98.0219 31.1883 105.966 31.9821 113.301 34.1256C115.765 34.8386 118.193 35.7175 120.443 36.9193C115.729 35.0942 110.613 34.2511 105.597 33.6951C101.411 33.2691 96.5414 33.1031 92.3277 33.2511C90.5466 33.3318 88.4056 33.3812 86.6472 33.574L82.8663 33.8834C81.5817 34.0493 78.4567 34.4484 77.2222 34.6054C74.735 35.0359 72.2204 35.4126 69.7469 35.9058C67.0684 36.4843 63.0961 37.3318 60.3993 37.8834C47.7628 40.4619 34.6207 40.8206 21.9158 38.5247C14.4132 37.0493 6.81029 34.8924 0.123047 31.1794H0.127602V31.1704Z" fill="#385F59"/>
</g>
</svg>
