<svg width="76" height="51" viewBox="0 0 76 51" fill="none" xmlns="http://www.w3.org/2000/svg">
<g id="Facebook-f_Logo-Blue-Logo.wine 1">
<path id="Vector" d="M54.8891 25.5C54.8891 16.1112 47.3277 8.5 38.0002 8.5C28.6727 8.5 21.1113 16.1112 21.1113 25.5C21.1113 33.9852 27.2873 41.0182 35.3613 42.2935V30.4141H31.0731V25.5H35.3613V21.7547C35.3613 17.4941 37.8827 15.1406 41.7405 15.1406C43.5883 15.1406 45.5211 15.4727 45.5211 15.4727V19.6563H43.3914C41.2934 19.6563 40.6391 20.9667 40.6391 22.3111V25.5H45.3231L44.5744 30.4141H40.6391V42.2935C48.7131 41.0182 54.8891 33.9852 54.8891 25.5Z" fill="white"/>
<path id="Vector_2" d="M44.5735 30.4141L45.3223 25.5H40.6382V22.3111C40.6382 20.9667 41.2925 19.6562 43.3905 19.6562H45.5202V15.4726C45.5202 15.4726 43.5874 15.1406 41.7396 15.1406C37.8818 15.1406 35.3605 17.494 35.3605 21.7547V25.5H31.0723V30.4141H35.3605V42.2935C36.2334 42.4312 37.1157 42.5002 37.9994 42.5C38.8971 42.5 39.7784 42.4293 40.6382 42.2935V30.4141H44.5735Z" fill="#385F59"/>
</g>
</svg>
