<svg width="56" height="57" viewBox="0 0 56 57" fill="none" xmlns="http://www.w3.org/2000/svg">
<g id="ic:baseline-phone">
<path id="Vector" d="M15.4467 25.6262C18.8067 32.3475 24.22 37.8337 30.8233 41.2775L35.9567 36.0525C36.5867 35.4113 37.52 35.1975 38.3367 35.4825C40.95 36.3612 43.7733 36.8363 46.6667 36.8363C47.95 36.8363 49 37.905 49 39.2113V47.5C49 48.8063 47.95 49.875 46.6667 49.875C24.7567 49.875 7 31.8013 7 9.5C7 8.19375 8.05 7.125 9.33333 7.125H17.5C18.7833 7.125 19.8333 8.19375 19.8333 9.5C19.8333 12.4688 20.3 15.3188 21.1633 17.9788C21.42 18.81 21.2333 19.7362 20.58 20.4013L15.4467 25.6262Z" fill="white"/>
</g>
</svg>
