<svg width="57" height="57" viewBox="0 0 57 57" fill="none" xmlns="http://www.w3.org/2000/svg">
<g id="material-symbols:mark-email-read-outline">
<path id="Vector" d="M37.8813 52.25L27.7875 42.1563L31.1125 38.8313L37.8813 45.6L51.3 32.1813L54.625 35.5063L37.8813 52.25ZM28.5 26.125L47.5 14.25H9.5L28.5 26.125ZM28.5 30.875L9.5 19V42.75H21.7313L26.4813 47.5H9.5C8.19375 47.5 7.07513 47.0345 6.14413 46.1035C5.21313 45.1725 4.74842 44.0547 4.75 42.75V14.25C4.75 12.9438 5.2155 11.8251 6.1465 10.8941C7.0775 9.96313 8.19534 9.49842 9.5 9.5H47.5C48.8063 9.5 49.9249 9.9655 50.8559 10.8965C51.7869 11.8275 52.2516 12.9453 52.25 14.25V24.5813L47.5 29.3313V19L28.5 30.875Z" fill="white"/>
</g>
</svg>
