<svg width="58" height="58" viewBox="0 0 58 58" fill="none" xmlns="http://www.w3.org/2000/svg">
<g id="mdi:faq">
<path id="Vector" d="M43.4987 36.25H14.4987L4.83203 45.9167V7.25004C4.83203 6.6091 5.08664 5.99441 5.53986 5.5412C5.99307 5.08799 6.60776 4.83337 7.2487 4.83337H43.4987C44.1396 4.83337 44.7543 5.08799 45.2075 5.5412C45.6608 5.99441 45.9154 6.6091 45.9154 7.25004V33.8334C45.9154 34.4743 45.6608 35.089 45.2075 35.5422C44.7543 35.9954 44.1396 36.25 43.4987 36.25ZM55.582 21.75V55.5834L45.9154 45.9167H19.332C18.6911 45.9167 18.0764 45.6621 17.6232 45.2089C17.17 44.7557 16.9154 44.141 16.9154 43.5V41.0834H50.7487V19.3334H53.1654C53.8063 19.3334 54.421 19.588 54.8742 20.0412C55.3274 20.4944 55.582 21.1091 55.582 21.75ZM19.7912 9.66671C17.6887 9.66671 15.997 10.15 14.692 11.0925C13.4354 12.0834 12.807 13.4609 12.8312 15.37L12.8554 15.4425H17.5195C17.5437 14.7175 17.7612 14.1617 18.1962 13.775C18.6437 13.4039 19.21 13.2066 19.7912 13.2192C20.5404 13.2192 21.1687 13.4609 21.6037 13.8959C22.0387 14.355 22.232 14.9834 22.232 15.7084C22.232 16.4817 22.0629 17.1342 21.6762 17.69C21.3379 18.2459 20.8304 18.7292 20.202 19.1159C18.9695 19.9375 18.1237 20.6625 17.6645 21.315C17.1812 21.9434 16.9154 22.9584 16.9154 24.1667H21.7487C21.7487 23.4175 21.8454 22.8134 22.0629 22.3784C22.2804 21.9434 22.6912 21.5084 23.2954 21.1217C24.3829 20.5417 25.277 19.8409 25.9779 18.8742C26.6787 17.9075 27.0412 16.9167 27.0412 15.7084C27.0412 13.8717 26.3887 12.3975 25.0837 11.31C23.8029 10.2225 22.0387 9.66671 19.7912 9.66671ZM16.9154 26.5834V31.4167H21.7487V26.5834H16.9154ZM31.4154 31.4167H36.2487V26.5834H31.4154V31.4167ZM31.4154 9.66671V24.1667H36.2487V9.66671H31.4154Z" fill="white"/>
</g>
</svg>
