<svg width="120" height="20" viewBox="0 0 120 20" fill="none" xmlns="http://www.w3.org/2000/svg">
<path d="M9.10329 1.81663C9.47013 1.07346 10.5299 1.07346 10.8967 1.81663L12.8576 5.78909C13.0031 6.08394 13.2843 6.2884 13.6096 6.33595L17.9962 6.97712C18.8161 7.09696 19.1429 8.1048 18.5493 8.68296L15.3768 11.773C15.1409 12.0027 15.0333 12.3339 15.0889 12.6584L15.8374 17.0226C15.9775 17.8396 15.12 18.4626 14.3864 18.0767L10.4655 16.0148C10.1741 15.8615 9.82593 15.8615 9.53455 16.0148L5.61363 18.0767C4.88 18.4626 4.02245 17.8396 4.16257 17.0226L4.91109 12.6584C4.96675 12.3339 4.85908 12.0027 4.62321 11.773L1.45068 8.68296C0.857085 8.1048 1.18387 7.09696 2.00378 6.97712L6.39037 6.33595C6.71572 6.2884 6.99691 6.08394 7.14245 5.78909L9.10329 1.81663Z" fill="#F7CE45"/>
<path d="M34.1033 1.81663C34.4701 1.07346 35.5299 1.07346 35.8967 1.81663L37.8576 5.78909C38.0031 6.08394 38.2843 6.2884 38.6096 6.33595L42.9962 6.97712C43.8161 7.09696 44.1429 8.1048 43.5493 8.68296L40.3768 11.773C40.1409 12.0027 40.0333 12.3339 40.0889 12.6584L40.8374 17.0226C40.9775 17.8396 40.12 18.4626 39.3864 18.0767L35.4655 16.0148C35.1741 15.8615 34.8259 15.8615 34.5345 16.0148L30.6136 18.0767C29.88 18.4626 29.0225 17.8396 29.1626 17.0226L29.9111 12.6584C29.9667 12.3339 29.8591 12.0027 29.6232 11.773L26.4507 8.68296C25.8571 8.1048 26.1839 7.09696 27.0038 6.97712L31.3904 6.33595C31.7157 6.2884 31.9969 6.08394 32.1424 5.78909L34.1033 1.81663Z" fill="#F7CE45"/>
<path d="M59.1033 1.81663C59.4701 1.07346 60.5299 1.07346 60.8967 1.81663L62.8576 5.78909C63.0031 6.08394 63.2843 6.2884 63.6096 6.33595L67.9962 6.97712C68.8161 7.09696 69.1429 8.1048 68.5493 8.68296L65.3768 11.773C65.1409 12.0027 65.0333 12.3339 65.0889 12.6584L65.8374 17.0226C65.9775 17.8396 65.12 18.4626 64.3864 18.0767L60.4655 16.0148C60.1741 15.8615 59.8259 15.8615 59.5345 16.0148L55.6136 18.0767C54.88 18.4626 54.0225 17.8396 54.1626 17.0226L54.9111 12.6584C54.9667 12.3339 54.8591 12.0027 54.6232 11.773L51.4507 8.68296C50.8571 8.1048 51.1839 7.09696 52.0038 6.97712L56.3904 6.33595C56.7157 6.2884 56.9969 6.08394 57.1424 5.78909L59.1033 1.81663Z" fill="#F7CE45"/>
<path d="M84.1033 1.81663C84.4701 1.07346 85.5299 1.07346 85.8967 1.81663L87.8576 5.78909C88.0031 6.08394 88.2843 6.2884 88.6096 6.33595L92.9962 6.97712C93.8161 7.09696 94.1429 8.1048 93.5493 8.68296L90.3768 11.773C90.1409 12.0027 90.0333 12.3339 90.0889 12.6584L90.8374 17.0226C90.9775 17.8396 90.12 18.4626 89.3864 18.0767L85.4655 16.0148C85.1741 15.8615 84.8259 15.8615 84.5345 16.0148L80.6136 18.0767C79.88 18.4626 79.0225 17.8396 79.1626 17.0226L79.9111 12.6584C79.9667 12.3339 79.8591 12.0027 79.6232 11.773L76.4507 8.68296C75.8571 8.1048 76.1839 7.09696 77.0038 6.97712L81.3904 6.33595C81.7157 6.2884 81.9969 6.08394 82.1424 5.78909L84.1033 1.81663Z" fill="#F7CE45"/>
<path d="M109.552 2.03794C109.735 1.66636 110.265 1.66636 110.448 2.03794L112.409 6.0104C112.628 6.45267 113.049 6.75936 113.537 6.8307L117.924 7.47186C118.334 7.53178 118.497 8.0357 118.2 8.32478L115.028 11.4148C114.674 11.7594 114.513 12.2561 114.596 12.7429L115.345 17.1072C115.415 17.5156 114.986 17.8271 114.619 17.6342L110.698 15.5722C110.261 15.3424 109.739 15.3424 109.302 15.5722L105.381 17.6342C105.014 17.8271 104.585 17.5156 104.655 17.1072L105.404 12.7429C105.487 12.2561 105.326 11.7594 104.972 11.4148L101.8 8.32478C101.503 8.0357 101.666 7.53178 102.076 7.47186L106.463 6.8307C106.951 6.75936 107.372 6.45267 107.591 6.0104L109.552 2.03794Z" fill="white" stroke="#F7CE45" stroke-linecap="round" stroke-linejoin="round"/>
</svg>
