<svg width="25" height="16" viewBox="0 0 25 16" fill="none" xmlns="http://www.w3.org/2000/svg">
<path id="Vector" d="M8.28308 13.7646C8.28308 14.999 7.30331 16 6.09498 16C4.88665 16 3.90689 14.999 3.90689 13.7646C3.90689 12.5301 4.88665 11.5291 6.09498 11.5291C7.30331 11.5291 8.28308 12.5301 8.28308 13.7646ZM21.2179 13.7646C21.2179 14.999 20.2381 16 19.0298 16C17.8214 16 16.8417 14.999 16.8417 13.7646C16.8417 12.5301 17.8214 11.5291 19.0298 11.5291C20.2381 11.5291 21.2179 12.5301 21.2179 13.7646ZM10.7875 0C11.1108 0.385134 11.1065 0.950446 11.1065 0.950446L11.095 8.86499C11.1037 9.16051 10.8859 9.2834 10.8859 9.2834C10.6315 9.4418 10.399 9.2627 10.399 9.2627L10.1515 9.03303L9.79255 9.37128C9.64439 9.49947 9.46159 9.51646 9.46159 9.51646C9.19527 9.54495 9.01966 9.38687 9.01966 9.38687L8.63211 9.04005L8.2662 9.37831C8.07621 9.53319 7.85315 9.52253 7.85315 9.52253C7.64403 9.52962 7.4788 9.37518 7.4788 9.37518L7.1227 9.0384L6.73716 9.39472C6.55455 9.53709 6.36218 9.52432 6.36218 9.52432C6.13356 9.53287 5.96139 9.3647 5.96139 9.3647L5.61216 9.03648L5.39692 9.23811C5.21737 9.39651 4.99562 9.33628 4.99562 9.33628C4.64884 9.22943 4.67028 8.88651 4.67028 8.88651V0.94738C4.6951 0.49531 4.45848 0.263591 4.45848 0.263591C4.39765 0.180305 4.37427 0.0683406 4.37214 0H1.04702C0.744942 0 0.5 0.250242 0.5 0.55886L0.657872 13.3694C0.657872 13.5176 0.715512 13.6598 0.81804 13.7646C0.920631 13.8694 1.05979 13.9283 1.2049 13.9283L3.08635 13.7646C3.08635 12.6663 3.65976 11.6516 4.59064 11.1027C5.52158 10.5536 6.66833 10.5536 7.59927 11.1027C8.53021 11.6516 9.10355 12.6663 9.10355 13.7646H14.1062V0.55886C14.1062 0.410682 14.0485 0.268445 13.9459 0.163635C13.8434 0.0588886 13.7042 0 13.5591 0H10.7875ZM20.1019 1.67658H14.6537V13.7646H16.0213C16.0213 12.6663 16.5947 11.6516 17.5255 11.1027C18.4565 10.5536 19.6032 10.5536 20.5342 11.1027C21.4651 11.6516 22.0385 12.6663 22.0385 13.7646H23.406C23.6958 13.7638 23.9738 13.6456 24.1787 13.4362C24.3835 13.2269 24.4993 12.943 24.5 12.6468V7.6171C24.4986 7.38762 24.4299 7.16382 24.3032 6.97445L20.999 2.15152C20.7922 1.8549 20.4585 1.67805 20.1019 1.67658ZM10.6563 0.855598V8.89903L10.3213 8.58409C10.2259 8.49691 10.0816 8.49704 9.98623 8.58422L9.50879 9.02747C9.44502 9.0863 9.34812 9.08623 9.28429 9.02741L8.79691 8.58933C8.75096 8.54685 8.69132 8.52309 8.62936 8.52252C8.56735 8.52277 8.50764 8.54654 8.46188 8.58933L7.98444 9.03258C7.92067 9.09141 7.82371 9.09134 7.75994 9.03252L7.28925 8.58933C7.19391 8.50215 7.04956 8.50215 6.95422 8.58933L6.47678 9.03258C6.41301 9.09141 6.31611 9.09134 6.25228 9.03252L5.77652 8.58926C5.68112 8.50208 5.53689 8.50215 5.44156 8.58933L5.10653 8.90248V0.847104C5.10684 0.53906 5.00394 0.240086 4.81501 0H9.81856C10.0407 0 10.2537 0.0901194 10.4108 0.250688C10.5679 0.411129 10.6563 0.628669 10.6563 0.855598ZM10.075 6.86082C10.075 6.67917 10.0044 6.50507 9.87876 6.37669C9.75317 6.24837 9.58268 6.17627 9.40495 6.17627H9.06992C8.97746 6.17627 8.90244 6.09962 8.90244 6.0051C8.90244 5.91057 8.97746 5.83399 9.06992 5.83399H9.59425C9.73304 5.83399 9.84551 5.71896 9.84551 5.57723C9.84551 5.43544 9.73304 5.32054 9.59425 5.32054H9.48372V5.17C9.48372 5.02814 9.37125 4.91324 9.23246 4.91324C9.09368 4.91324 8.98115 5.02814 8.98115 5.17V5.3291C8.74177 5.34411 8.52846 5.48839 8.42143 5.70765C8.3144 5.92692 8.33003 6.18795 8.4625 6.39221C8.59485 6.59653 8.82392 6.71316 9.06329 6.69821H9.39832C9.44608 6.69789 9.49172 6.71846 9.52373 6.75473C9.55574 6.79101 9.57106 6.83962 9.56581 6.88816C9.56581 6.93351 9.54817 6.97706 9.51679 7.00919C9.48528 7.04125 9.44271 7.05927 9.39832 7.05927H8.76002C8.6213 7.05927 8.50877 7.17423 8.50877 7.31596C8.50877 7.45781 8.6213 7.57271 8.76002 7.57271H8.98121V7.72326C8.98121 7.86505 9.09368 7.98001 9.23246 7.98001C9.37125 7.98001 9.48372 7.86505 9.48372 7.72326V7.56415C9.6507 7.54403 9.80418 7.46062 9.91371 7.33033C10.0232 7.20003 10.0808 7.0325 10.075 6.86082ZM16.8418 6.14746V2.7943H20.1239L22.312 6.14746H16.8418ZM8.57922 3.50006C8.71801 3.50006 8.83048 3.38516 8.83048 3.24337C8.83048 3.10164 8.71801 2.98668 8.57922 2.98668H5.92581C5.78709 2.98668 5.67456 3.10164 5.67456 3.24337C5.67456 3.38516 5.78709 3.50006 5.92581 3.50006H8.57922ZM10.0751 3.24324C10.0751 3.10158 9.9626 2.98655 9.82381 2.98655H9.52229C9.38357 2.98655 9.27104 3.10158 9.27104 3.24324C9.27104 3.3851 9.38357 3.5 9.52229 3.5H9.82381C9.9626 3.5 10.0751 3.3851 10.0751 3.24324ZM5.67437 1.51219C5.67537 1.6536 5.78728 1.76798 5.92563 1.76888H8.57904C8.71782 1.76888 8.83029 1.65398 8.83029 1.51219C8.83029 1.37046 8.71782 1.25549 8.57904 1.25549H5.92563C5.7869 1.25549 5.67437 1.37046 5.67437 1.51219ZM10.075 1.51206C10.075 1.3704 9.96254 1.25537 9.82375 1.25537H9.52223C9.38351 1.25537 9.27097 1.3704 9.27097 1.51206C9.27097 1.65391 9.38351 1.76882 9.52223 1.76882H9.82375C9.96254 1.76882 10.075 1.65391 10.075 1.51206Z" fill="#FCF7EF"/>
</svg>
