<svg width="24" height="17" viewBox="0 0 24 17" fill="none" xmlns="http://www.w3.org/2000/svg">
<path id="Vector" d="M7.78308 14.2646C7.78308 15.499 6.80331 16.5 5.59498 16.5C4.38665 16.5 3.40689 15.499 3.40689 14.2646C3.40689 13.0301 4.38665 12.0291 5.59498 12.0291C6.80331 12.0291 7.78308 13.0301 7.78308 14.2646ZM20.7179 14.2646C20.7179 15.499 19.7381 16.5 18.5298 16.5C17.3214 16.5 16.3417 15.499 16.3417 14.2646C16.3417 13.0301 17.3214 12.0291 18.5298 12.0291C19.7381 12.0291 20.7179 13.0301 20.7179 14.2646ZM10.2875 0.5C10.6108 0.885134 10.6065 1.45045 10.6065 1.45045L10.595 9.36499C10.6037 9.66051 10.3859 9.7834 10.3859 9.7834C10.1315 9.9418 9.89897 9.7627 9.89897 9.7627L9.65153 9.53303L9.29255 9.87128C9.14439 9.99947 8.96159 10.0165 8.96159 10.0165C8.69527 10.0449 8.51966 9.88687 8.51966 9.88687L8.13211 9.54005L7.7662 9.87831C7.57621 10.0332 7.35315 10.0225 7.35315 10.0225C7.14403 10.0296 6.9788 9.87518 6.9788 9.87518L6.6227 9.5384L6.23716 9.89472C6.05455 10.0371 5.86218 10.0243 5.86218 10.0243C5.63356 10.0329 5.46139 9.8647 5.46139 9.8647L5.11216 9.53648L4.89692 9.73811C4.71737 9.89651 4.49562 9.83628 4.49562 9.83628C4.14884 9.72943 4.17028 9.38651 4.17028 9.38651V1.44738C4.1951 0.99531 3.95848 0.763591 3.95848 0.763591C3.89765 0.680305 3.87427 0.568341 3.87214 0.5H0.547024C0.244942 0.5 0 0.750242 0 1.05886L0.157872 13.8694C0.157872 14.0176 0.215512 14.1598 0.31804 14.2646C0.420631 14.3694 0.559794 14.4283 0.704896 14.4283L2.58635 14.2646C2.58635 13.1663 3.15976 12.1516 4.09064 11.6027C5.02158 11.0536 6.16833 11.0536 7.09927 11.6027C8.03021 12.1516 8.60355 13.1663 8.60355 14.2646H13.6062V1.05886C13.6062 0.910682 13.5485 0.768445 13.4459 0.663635C13.3434 0.558889 13.2042 0.5 13.0591 0.5H10.2875ZM19.6019 2.17658H14.1537V14.2646H15.5213C15.5213 13.1663 16.0947 12.1516 17.0255 11.6027C17.9565 11.0536 19.1032 11.0536 20.0342 11.6027C20.9651 12.1516 21.5385 13.1663 21.5385 14.2646H22.906C23.1958 14.2638 23.4738 14.1456 23.6787 13.9362C23.8835 13.7269 23.9993 13.443 24 13.1468V8.1171C23.9986 7.88762 23.9299 7.66382 23.8032 7.47445L20.499 2.65152C20.2922 2.3549 19.9585 2.17805 19.6019 2.17658ZM10.1563 1.3556V9.39903L9.82126 9.08409C9.72592 8.99691 9.58157 8.99704 9.48623 9.08422L9.00879 9.52747C8.94502 9.5863 8.84812 9.58623 8.78429 9.52741L8.29691 9.08933C8.25096 9.04685 8.19132 9.02309 8.12936 9.02252C8.06735 9.02277 8.00764 9.04654 7.96188 9.08933L7.48444 9.53258C7.42067 9.59141 7.32371 9.59134 7.25994 9.53252L6.78925 9.08933C6.69391 9.00215 6.54956 9.00215 6.45422 9.08933L5.97678 9.53258C5.91301 9.59141 5.81611 9.59134 5.75228 9.53252L5.27652 9.08926C5.18112 9.00208 5.03689 9.00215 4.94156 9.08933L4.60653 9.40248V1.3471C4.60684 1.03906 4.50394 0.740086 4.31501 0.5H9.31856C9.54068 0.5 9.75374 0.590119 9.91085 0.750688C10.0679 0.911129 10.1563 1.12867 10.1563 1.3556ZM9.57501 7.36082C9.57501 7.17917 9.50442 7.00507 9.37876 6.87669C9.25317 6.74837 9.08268 6.67627 8.90495 6.67627H8.56992C8.47746 6.67627 8.40244 6.59962 8.40244 6.5051C8.40244 6.41057 8.47746 6.33399 8.56992 6.33399H9.09425C9.23304 6.33399 9.34551 6.21896 9.34551 6.07723C9.34551 5.93544 9.23304 5.82054 9.09425 5.82054H8.98372V5.67C8.98372 5.52814 8.87125 5.41324 8.73246 5.41324C8.59368 5.41324 8.48115 5.52814 8.48115 5.67V5.8291C8.24177 5.84411 8.02846 5.98839 7.92143 6.20765C7.8144 6.42692 7.83003 6.68795 7.9625 6.89221C8.09485 7.09653 8.32392 7.21316 8.56329 7.19821H8.89832C8.94608 7.19789 8.99172 7.21846 9.02373 7.25473C9.05574 7.29101 9.07106 7.33962 9.06581 7.38816C9.06581 7.43351 9.04817 7.47706 9.01679 7.50919C8.98528 7.54125 8.94271 7.55927 8.89832 7.55927H8.26002C8.1213 7.55927 8.00877 7.67423 8.00877 7.81596C8.00877 7.95781 8.1213 8.07271 8.26002 8.07271H8.48121V8.22326C8.48121 8.36505 8.59368 8.48001 8.73246 8.48001C8.87125 8.48001 8.98372 8.36505 8.98372 8.22326V8.06415C9.1507 8.04403 9.30418 7.96062 9.41371 7.83033C9.52318 7.70003 9.58076 7.5325 9.57501 7.36082ZM16.3418 6.64746V3.2943H19.6239L21.812 6.64746H16.3418ZM8.07922 4.00006C8.21801 4.00006 8.33048 3.88516 8.33048 3.74337C8.33048 3.60164 8.21801 3.48668 8.07922 3.48668H5.42581C5.28709 3.48668 5.17456 3.60164 5.17456 3.74337C5.17456 3.88516 5.28709 4.00006 5.42581 4.00006H8.07922ZM9.57507 3.74324C9.57507 3.60158 9.4626 3.48655 9.32381 3.48655H9.02229C8.88357 3.48655 8.77104 3.60158 8.77104 3.74324C8.77104 3.8851 8.88357 4 9.02229 4H9.32381C9.4626 4 9.57507 3.8851 9.57507 3.74324ZM5.17437 2.01219C5.17537 2.1536 5.28728 2.26798 5.42563 2.26888H8.07904C8.21782 2.26888 8.33029 2.15398 8.33029 2.01219C8.33029 1.87046 8.21782 1.75549 8.07904 1.75549H5.42563C5.2869 1.75549 5.17437 1.87046 5.17437 2.01219ZM9.57501 2.01206C9.57501 1.8704 9.46254 1.75537 9.32375 1.75537H9.02223C8.88351 1.75537 8.77097 1.8704 8.77097 2.01206C8.77097 2.15391 8.88351 2.26882 9.02223 2.26882H9.32375C9.46254 2.26882 9.57501 2.15391 9.57501 2.01206Z" fill="#385F59"/>
</svg>
