<svg width="22" height="24" viewBox="0 0 22 24" fill="none" xmlns="http://www.w3.org/2000/svg">
<path id="Vector" fill-rule="evenodd" clip-rule="evenodd" d="M15.9675 12.1999C14.2805 12.1999 12.7535 12.8809 11.6579 13.9763C11.5116 14.1225 10.8243 15.0202 10.8243 15.0202C10.2608 15.9173 9.93532 16.9721 9.93532 18.1C9.93532 21.3533 12.6414 24 15.9675 24C19.2938 23.9998 22 21.3531 22 18.0996C22 14.8462 19.294 12.1997 15.9679 12.1997L15.9675 12.1999ZM15.9675 22.8602C13.2838 22.8602 11.1004 20.7246 11.1004 18.0994C11.1004 15.4745 13.2838 13.3391 15.9675 13.3391C18.6511 13.3391 20.8345 15.4746 20.8345 18.0998C20.8345 20.7247 18.6511 22.8602 15.9675 22.8602ZM18.0839 20.1767C17.8888 19.9265 17.5233 19.8785 17.2675 20.0693C16.8935 20.3482 16.4515 20.4957 15.9891 20.4957C15.7629 20.4957 15.5403 20.4589 15.3286 20.3894C15.5085 20.2667 15.61 20.0501 15.5703 19.8248C15.5154 19.5148 15.214 19.3068 14.8969 19.3606L13.8112 19.5444C13.4793 19.6007 13.2588 19.9406 13.3494 20.259L13.6627 21.3576C13.8117 21.8798 14.579 21.9077 14.7701 21.401C15.1545 21.5537 15.5672 21.6352 15.9891 21.6352C16.709 21.6352 17.3955 21.4069 17.9741 20.9752C18.2298 20.7844 18.279 20.4268 18.0839 20.1767ZM19.4004 18.7244C19.4004 19.0914 19.0961 19.389 18.7207 19.389C18.3454 19.389 18.0412 19.0914 18.0412 18.7244C18.0412 18.3572 18.3454 18.0596 18.7207 18.0596C19.0961 18.0596 19.4004 18.3572 19.4004 18.7244ZM8.57445 19.099H1.26205C0.566215 19.099 0 18.5454 0 17.8647V2.77289C0 2.09231 0.566215 1.5385 1.26205 1.5385H2.79842V0.56976C2.79842 0.25514 3.05923 0 3.38094 0C3.70261 0 3.96347 0.255101 3.96347 0.56976V1.5385H7.05333V0.56976C7.05333 0.25514 7.31414 0 7.63585 0C7.95752 0 8.21838 0.255101 8.21838 0.56976V1.5385H11.3084V0.56976C11.3084 0.25514 11.5693 0 11.8909 0C12.2126 0 12.4734 0.255101 12.4734 0.56976V1.5385H15.5635V0.56976C15.5635 0.25514 15.8243 0 16.146 0C16.4677 0 16.7285 0.255101 16.7285 0.56976V1.5385H18.2649L18.2649 1.53838C18.9608 1.53838 19.527 2.09219 19.527 2.77277L19.5271 6.35184H19.5271V11.6841C18.4685 11.1207 17.256 10.8007 15.9677 10.8007C11.8489 10.8007 8.50495 14.0713 8.50495 18.0998C8.50495 18.4386 8.5286 18.7721 8.57445 19.099ZM18.0105 15.5857L17.4573 14.4316C17.3207 14.1467 16.9738 14.0241 16.6825 14.1576C16.4186 14.2786 16.2915 14.5683 16.3714 14.8337C16.2449 14.819 16.1172 14.8107 15.9887 14.8107C14.1376 14.8107 12.6315 16.3414 12.6315 18.2229C12.6315 18.5375 12.8923 18.7926 13.214 18.7926C13.5357 18.7926 13.7965 18.5375 13.7965 18.2229C13.7965 16.9708 14.7782 15.9521 15.9856 15.9504C15.7202 16.4109 16.2132 16.9609 16.716 16.7564L17.7066 16.3537C18.003 16.2333 18.148 15.8726 18.0105 15.5857ZM7.5978 14.9711H6.86505C6.54334 14.9711 6.28253 14.716 6.28253 14.4014C6.28253 14.0867 6.54338 13.8316 6.86505 13.8316H7.5978C7.91951 13.8316 8.18032 14.0868 8.18032 14.4014C8.18032 14.716 7.91947 14.9711 7.5978 14.9711ZM3.75028 14.9711H3.01753C2.69582 14.9711 2.43501 14.716 2.43501 14.4014C2.43501 14.0867 2.69586 13.8316 3.01753 13.8316H3.75028C4.07199 13.8316 4.3328 14.0868 4.3328 14.4014C4.3328 14.716 4.07195 14.9711 3.75028 14.9711ZM8.21322 11.4722C8.21322 12.0026 7.77362 12.4327 7.23134 12.4327C6.68906 12.4327 6.2493 12.0026 6.2493 11.4722C6.2493 10.9418 6.68906 10.5118 7.23134 10.5118C7.77362 10.5118 8.21322 10.9418 8.21322 11.4722ZM3.75028 12.09H3.01753C2.69582 12.09 2.43501 11.8349 2.43501 11.5202C2.43501 11.2056 2.69586 10.9505 3.01753 10.9505H3.75028C4.07199 10.9505 4.3328 11.2056 4.3328 11.5202C4.3328 11.8349 4.07195 12.09 3.75028 12.09ZM11.4445 9.20885H10.7118C10.3901 9.20885 10.1292 8.95371 10.1292 8.63909C10.1292 8.32447 10.3901 8.06933 10.7118 8.06933H11.4445C11.7662 8.06933 12.027 8.32447 12.027 8.63909C12.027 8.95371 11.7662 9.20885 11.4445 9.20885ZM15.292 9.20885H14.5593C14.2376 9.20885 13.9768 8.95371 13.9768 8.63909C13.9768 8.32447 14.2376 8.06933 14.5593 8.06933H15.292C15.6137 8.06933 15.8746 8.32447 15.8746 8.63909C15.8746 8.95371 15.6137 9.20885 15.292 9.20885ZM7.5978 9.20885H6.86505C6.54334 9.20885 6.28253 8.95371 6.28253 8.63909C6.28253 8.32447 6.54338 8.06933 6.86505 8.06933H7.5978C7.91951 8.06933 8.18032 8.32447 8.18032 8.63909C8.18032 8.95371 7.91947 9.20885 7.5978 9.20885ZM1.16484 2.77289C1.16484 2.72052 1.20842 2.6779 1.26201 2.6779H2.79838V3.54883C2.79838 3.86345 3.05919 4.11859 3.3809 4.11859C3.70257 4.11859 3.96343 3.86345 3.96343 3.54883L3.96326 2.67806H7.05313V3.54899C7.05313 3.86361 7.31394 4.11871 7.63565 4.11871C7.95732 4.11871 8.21817 3.86361 8.21817 3.54899V2.67806H11.3082V3.54899C11.3082 3.86361 11.569 4.11871 11.8907 4.11871C12.2124 4.11871 12.4732 3.86361 12.4732 3.54899V2.67806H15.5633V3.54899C15.5633 3.86361 15.8241 4.11871 16.1458 4.11871C16.4675 4.11871 16.7283 3.86361 16.7283 3.54899V2.67806H18.2647C18.3182 2.67806 18.3618 2.72068 18.3618 2.77305V5.65895L1.1648 5.65879L1.16484 2.77289Z" fill="#385F59"/>
</svg>
