<svg width="17" height="17" viewBox="0 0 17 17" fill="none" xmlns="http://www.w3.org/2000/svg">
<path id="Vector" d="M11.6214 0.901288C12.2175 0.319025 13.0191 -0.00479827 13.8524 5.37488e-05C14.6857 0.00490577 15.4834 0.338042 16.0727 0.927206C16.6619 1.51637 16.9951 2.31405 16.9999 3.14724C17.0048 3.98043 16.6809 4.78194 16.0986 5.37793L15.3866 6.08981L10.9094 1.61317L11.6214 0.901288ZM10.157 2.36655L1.64427 10.8782C1.29592 11.2269 1.05413 11.6676 0.947197 12.1488L0.0128059 16.3519C-0.00673755 16.4394 -0.00387294 16.5304 0.0211341 16.6164C0.0461412 16.7025 0.0924803 16.7808 0.155852 16.8442C0.219224 16.9075 0.297576 16.9539 0.383638 16.9789C0.4697 17.0039 0.560685 17.0067 0.648149 16.9872L4.8263 16.0582C5.32376 15.9475 5.77933 15.6972 6.13956 15.3368L14.6342 6.84319L10.157 2.36655Z" fill="#D75D39"/>
</svg>
